<svg id="Layer_5" enable-background="new 0 0 64 64" height="512" viewBox="0 0 64 64" width="512" xmlns="http://www.w3.org/2000/svg"><g><path d="m30 51h-16v3h-3c-1.657 0-3 1.343-3 3 0 .552.448 1 1 1h26v-4h-5z"/><path d="m46 28c.552 0 1-.449 1-1v-4c0-.551-.448-1-1-1s-1 .449-1 1v4c0 .551.448 1 1 1z"/><path d="m19.4 39.341 1.164-2.349c-1.482-2.273-2.514-4.769-3.073-7.435l-2.491-.839v-7.437l2.491-.84c.103-.489.238-.965.372-1.442h-11.863c-1.654 0-3 1.346-3 3v19h18.059zm-13.4-17.341h6v8h-6zm9 17h-10v-2h10zm0-4h-10v-2h10z"/><path d="m55 25c0-8.822-7.178-16-16-16s-16 7.178-16 16 7.178 16 16 16 16-7.178 16-16zm-12-2c0-1.654 1.346-3 3-3s3 1.346 3 3v4c0 1.654-1.346 3-3 3s-3-1.346-3-3zm-8 0h-2v-.146c0-.471-.384-.854-.854-.854h-.291c-.471 0-.855.383-.855.854 0 .326.181.619.473.764l1.949.975c.974.487 1.578 1.465 1.578 2.553 0 1.574-1.28 2.854-2.854 2.854h-.291c-1.575 0-2.855-1.28-2.855-2.854v-.146h2v.146c0 .471.384.854.854.854h.291c.471 0 .855-.383.855-.854 0-.326-.181-.619-.473-.764l-1.949-.975c-.974-.487-1.578-1.465-1.578-2.553 0-1.574 1.28-2.854 2.854-2.854h.291c1.575 0 2.855 1.28 2.855 2.854zm2-3h4v2h-2v2h2v2h-2v2h2v2h-4z"/><path d="m33.014 46.139c-2.134-.601-4.154-1.496-6.006-2.703l-2.35 1.164-1.599-1.6h-20.059v3c0 1.654 1.346 3 3 3h29.184c.014-.038.021-.078.036-.116-1.231-.334-2.144-1.425-2.206-2.745zm-26.014.861h-2v-2h2zm4 0h-2v-2h2zm4 0h-2v-2h2z"/><path d="m40 49h-2c-.552 0-1 .449-1 1v9c0 1.103.897 2 2 2s2-.897 2-2v-9c0-.551-.448-1-1-1z"/><path d="m35 42.536v3.464c0 .551.448 1 1 1h2 2 2c.552 0 1-.449 1-1v-3.464c-1.289.294-2.624.464-4 .464s-2.711-.17-4-.464z"/><path d="m58.762 21.963-.105-.58c-.512-2.801-1.587-5.402-3.197-7.732l-.334-.485 1.045-2.109-3.228-3.227-2.11 1.045-.484-.335c-2.328-1.608-4.93-2.684-7.732-3.197l-.58-.106-.755-2.237h-4.564l-.754 2.237-.58.106c-2.803.513-5.404 1.588-7.732 3.197l-.484.335-2.11-1.045-3.227 3.227 1.045 2.109-.334.485c-1.61 2.33-2.686 4.932-3.197 7.732l-.105.58-2.24.755v4.563l2.238.755.105.58c.512 2.8 1.587 5.401 3.197 7.732l.334.485-1.045 2.109 2.058 2.058h.113v.113l1.057 1.057 2.11-1.045.484.335c1.645 1.137 3.444 1.995 5.349 2.591v-2.1c-6.979-2.48-12-9.132-12-16.951 0-9.925 8.075-18 18-18s18 8.075 18 18c0 7.819-5.021 14.471-12 16.95v2.1c1.905-.596 3.703-1.454 5.349-2.591l.484-.335 2.11 1.045 3.227-3.227-1.045-2.109.334-.485c1.61-2.331 2.686-4.933 3.197-7.732l.105-.58 2.239-.754v-4.563z"/></g></svg>